<svg viewBox="0 0 1000 264" xmlns="http://www.w3.org/2000/svg" font-family="Arial, Helvetica, sans-serif">
  <rect x="0" y="0" width="1000" height="264" rx="10" fill="#ffffff" stroke="#e4e4e7" stroke-width="1.5"/>

  <!-- Header -->
  <rect x="0" y="0" width="1000" height="44" rx="10" fill="#18181b"/>
  <rect x="0" y="24" width="1000" height="20" fill="#18181b"/>
  <text x="50" y="27" text-anchor="middle" fill="#ffffff" font-size="14" font-weight="700">Mã CK</text>
  <text x="145" y="27" text-anchor="middle" fill="#ffffff" font-size="14" font-weight="700">TC</text>
  <text x="235" y="27" text-anchor="middle" fill="#ffffff" font-size="14" font-weight="700">Trần</text>
  <text x="325" y="27" text-anchor="middle" fill="#ffffff" font-size="14" font-weight="700">Sàn</text>
  <text x="420" y="27" text-anchor="middle" fill="#ffffff" font-size="14" font-weight="700">Giá mua</text>
  <text x="525" y="27" text-anchor="middle" fill="#ffffff" font-size="14" font-weight="700">Giá khớp</text>
  <text x="660" y="27" text-anchor="middle" fill="#ffffff" font-size="14" font-weight="700">+/- (%)</text>
  <text x="790" y="27" text-anchor="middle" fill="#ffffff" font-size="14" font-weight="700">Giá bán</text>
  <text x="920" y="27" text-anchor="middle" fill="#ffffff" font-size="14" font-weight="700">KL</text>

  <!-- Column separators -->
  <g stroke="#f0f0f1" stroke-width="1">
    <line x1="100" y1="44" x2="100" y2="264"/>
    <line x1="190" y1="44" x2="190" y2="264"/>
    <line x1="280" y1="44" x2="280" y2="264"/>
    <line x1="370" y1="44" x2="370" y2="264"/>
    <line x1="470" y1="44" x2="470" y2="264"/>
    <line x1="580" y1="44" x2="580" y2="264"/>
    <line x1="740" y1="44" x2="740" y2="264"/>
    <line x1="840" y1="44" x2="840" y2="264"/>
  </g>

  <!-- Row 1: tăng (xanh lá) -->
  <rect x="0" y="44" width="1000" height="44" fill="#ffffff"/>
  <text x="50" y="71" text-anchor="middle" font-size="15" fill="#27272a" font-weight="600">ABC</text>
  <text x="145" y="71" text-anchor="middle" font-size="13" fill="#71717a">24.50</text>
  <text x="235" y="71" text-anchor="middle" font-size="13" fill="#71717a">26.20</text>
  <text x="325" y="71" text-anchor="middle" font-size="13" fill="#71717a">22.80</text>
  <text x="420" y="71" text-anchor="middle" font-size="13" fill="#3f3f46">25.25</text>
  <text x="525" y="71" text-anchor="middle" font-size="15" fill="#16a34a" font-weight="700">25.30</text>
  <text x="660" y="71" text-anchor="middle" font-size="13" fill="#16a34a" font-weight="600">+0.80 (+3.26%)</text>
  <text x="790" y="71" text-anchor="middle" font-size="13" fill="#3f3f46">25.35</text>
  <text x="920" y="71" text-anchor="middle" font-size="13" fill="#71717a">152.300</text>

  <!-- Row 2: giảm (đỏ) -->
  <rect x="0" y="88" width="1000" height="44" fill="#fafafa"/>
  <text x="50" y="115" text-anchor="middle" font-size="15" fill="#27272a" font-weight="600">XYZ</text>
  <text x="145" y="115" text-anchor="middle" font-size="13" fill="#71717a">24.50</text>
  <text x="235" y="115" text-anchor="middle" font-size="13" fill="#71717a">26.20</text>
  <text x="325" y="115" text-anchor="middle" font-size="13" fill="#71717a">22.80</text>
  <text x="420" y="115" text-anchor="middle" font-size="13" fill="#3f3f46">23.85</text>
  <text x="525" y="115" text-anchor="middle" font-size="15" fill="#dc2626" font-weight="700">23.90</text>
  <text x="660" y="115" text-anchor="middle" font-size="13" fill="#dc2626" font-weight="600">-0.60 (-2.45%)</text>
  <text x="790" y="115" text-anchor="middle" font-size="13" fill="#3f3f46">23.95</text>
  <text x="920" y="115" text-anchor="middle" font-size="13" fill="#71717a">98.700</text>

  <!-- Row 3: đứng giá (vàng) -->
  <rect x="0" y="132" width="1000" height="44" fill="#ffffff"/>
  <text x="50" y="159" text-anchor="middle" font-size="15" fill="#27272a" font-weight="600">DEF</text>
  <text x="145" y="159" text-anchor="middle" font-size="13" fill="#71717a">24.50</text>
  <text x="235" y="159" text-anchor="middle" font-size="13" fill="#71717a">26.20</text>
  <text x="325" y="159" text-anchor="middle" font-size="13" fill="#71717a">22.80</text>
  <text x="420" y="159" text-anchor="middle" font-size="13" fill="#3f3f46">24.45</text>
  <text x="525" y="159" text-anchor="middle" font-size="15" fill="#b45309" font-weight="700">24.50</text>
  <text x="660" y="159" text-anchor="middle" font-size="13" fill="#b45309" font-weight="600">0.00 (0.00%)</text>
  <text x="790" y="159" text-anchor="middle" font-size="13" fill="#3f3f46">24.55</text>
  <text x="920" y="159" text-anchor="middle" font-size="13" fill="#71717a">45.200</text>

  <!-- Row 4: trần (tím) -->
  <rect x="0" y="176" width="1000" height="44" fill="#fafafa"/>
  <text x="50" y="203" text-anchor="middle" font-size="15" fill="#27272a" font-weight="600">GHI</text>
  <text x="145" y="203" text-anchor="middle" font-size="13" fill="#71717a">24.50</text>
  <text x="235" y="203" text-anchor="middle" font-size="13" fill="#71717a">26.20</text>
  <text x="325" y="203" text-anchor="middle" font-size="13" fill="#71717a">22.80</text>
  <text x="420" y="203" text-anchor="middle" font-size="13" fill="#3f3f46">26.15</text>
  <text x="525" y="203" text-anchor="middle" font-size="15" fill="#a21caf" font-weight="700">26.20</text>
  <text x="660" y="203" text-anchor="middle" font-size="13" fill="#a21caf" font-weight="600">+1.70 (+6.94%)</text>
  <text x="790" y="203" text-anchor="middle" font-size="13" fill="#3f3f46">-</text>
  <text x="920" y="203" text-anchor="middle" font-size="13" fill="#71717a">310.500</text>

  <!-- Row 5: sàn (xanh lam) -->
  <rect x="0" y="220" width="1000" height="44" fill="#ffffff"/>
  <text x="50" y="247" text-anchor="middle" font-size="15" fill="#27272a" font-weight="600">KLM</text>
  <text x="145" y="247" text-anchor="middle" font-size="13" fill="#71717a">24.50</text>
  <text x="235" y="247" text-anchor="middle" font-size="13" fill="#71717a">26.20</text>
  <text x="325" y="247" text-anchor="middle" font-size="13" fill="#71717a">22.80</text>
  <text x="420" y="247" text-anchor="middle" font-size="13" fill="#3f3f46">-</text>
  <text x="525" y="247" text-anchor="middle" font-size="15" fill="#2563eb" font-weight="700">22.80</text>
  <text x="660" y="247" text-anchor="middle" font-size="13" fill="#2563eb" font-weight="600">-1.70 (-6.94%)</text>
  <text x="790" y="247" text-anchor="middle" font-size="13" fill="#3f3f46">22.85</text>
  <text x="920" y="247" text-anchor="middle" font-size="13" fill="#71717a">87.400</text>
</svg>
